<svg width="7" height="9" viewBox="0 0 7 9" version="1.1" xmlns="http://www.w3.org/2000/svg" xmlns:xlink="http://www.w3.org/1999/xlink">
<title>Path 2</title>
<desc>Created using Figma</desc>
<g id="Canvas" transform="translate(-1746 -216)">
<g id="Path 2" opacity="0.5">
<use xlink:href="#path0_stroke" transform="translate(1747.9 217.25)" fill="#9DABB2"/>
</g>
</g>
<defs>
<path id="path0_stroke" d="M 0.683941 -0.729537C 0.281029 -1.10727 -0.351807 -1.08685 -0.729537 -0.683941C -1.10727 -0.281029 -1.08685 0.351807 -0.683941 0.729537L 0.683941 -0.729537ZM 3.2 3L 3.88394 3.72954C 4.08559 3.54049 4.2 3.27641 4.2 3C 4.2 2.72359 4.08559 2.45951 3.88394 2.27046L 3.2 3ZM -0.683941 5.27046C -1.08685 5.64819 -1.10727 6.28103 -0.729537 6.68394C -0.351807 7.08685 0.281029 7.10727 0.683941 6.72954L -0.683941 5.27046ZM -0.683941 0.729537L 2.51606 3.72954L 3.88394 2.27046L 0.683941 -0.729537L -0.683941 0.729537ZM 2.51606 2.27046L -0.683941 5.27046L 0.683941 6.72954L 3.88394 3.72954L 2.51606 2.27046Z"/>
</defs>
</svg>
