<svg width="14" height="24" viewBox="0 0 14 24" version="1.1" xmlns="http://www.w3.org/2000/svg" xmlns:xlink="http://www.w3.org/1999/xlink">
<title>Shape</title>
<desc>Created using Figma</desc>
<g id="Canvas" transform="translate(145 -1715)">
<g id="Shape" opacity="0.3">
<use xlink:href="#path0_fill" transform="matrix(-1 0 0 1 -131 1715)" fill="#9DABB2"/>
</g>
</g>
<defs>
<path id="path0_fill" d="M 13.8254 11.5883L 2.14082 0.170543C 1.90812 -0.0568475 1.53082 -0.0568475 1.29819 0.170543L 0.174549 1.26852C 0.0627644 1.37767 0 1.5258 0 1.68021C 0 1.83463 0.0627644 1.98275 0.174549 2.09191L 10.3143 12L 0.174549 21.9081C 0.0627644 22.0172 0 22.1654 0 22.3198C 0 22.4742 0.0627644 22.6223 0.174549 22.7315L 1.29819 23.8294C 1.4145 23.9431 1.56704 24 1.71951 24C 1.87197 24 2.02451 23.9432 2.14082 23.8294L 13.8254 12.4117C 14.0582 12.1843 14.0582 11.8156 13.8254 11.5883Z"/>
</defs>
</svg>
