<svg width="8" height="8" viewBox="0 0 8 8" version="1.1" xmlns="http://www.w3.org/2000/svg" xmlns:xlink="http://www.w3.org/1999/xlink">
<title>Shape</title>
<desc>Created using Figma</desc>
<g id="Canvas" transform="translate(-1768 -344)">
<g id="Shape">
<use xlink:href="#path0_fill" transform="translate(1768 344)" fill="#FFFFFF"/>
</g>
</g>
<defs>
<path id="path0_fill" d="M 4.95079 4.00002L 7.80308 1.14772C 8.06564 0.885164 8.06564 0.459475 7.80308 0.196956C 7.54052 -0.0656018 7.11487 -0.0656018 6.85232 0.196956L 3.99999 3.04929L 1.14765 0.196918C 0.885097 -0.0656393 0.459447 -0.0656393 0.19689 0.196918C -0.0656299 0.459475 -0.0656299 0.885164 0.19689 1.14768L 3.04922 3.99998L 0.19689 6.85232C -0.0656299 7.11487 -0.0656299 7.54056 0.19689 7.80308C 0.459447 8.06564 0.885097 8.06564 1.14765 7.80308L 3.99999 4.95075L 6.85232 7.80308C 7.11484 8.06564 7.54052 8.06564 7.80308 7.80308C 8.06564 7.54052 8.06564 7.11487 7.80308 6.85232L 4.95079 4.00002Z"/>
</defs>
</svg>
