<svg width="10" height="6" viewBox="0 0 10 6" version="1.1" xmlns="http://www.w3.org/2000/svg" xmlns:xlink="http://www.w3.org/1999/xlink">
<title>cart_arrow</title>
<desc>Created using Figma</desc>
<g id="Canvas" transform="translate(-6775 -629)">
<g id="cart_arrow" opacity="0.5">
<use xlink:href="#path0_stroke" transform="matrix(6.12323e-17 1 -1 6.12323e-17 6784 630.4)" fill="#505659"/>
</g>
</g>
<defs>
<path id="path0_stroke" d="M 0.780869 -0.624695C 0.435859 -1.05596 -0.193433 -1.12588 -0.624695 -0.780869C -1.05596 -0.435859 -1.12588 0.193433 -0.780869 0.624695L 0.780869 -0.624695ZM 3.2 4L 3.98087 4.62469C 4.27304 4.25948 4.27304 3.74052 3.98087 3.3753L 3.2 4ZM -0.780869 7.37531C -1.12588 7.80657 -1.05596 8.43586 -0.624695 8.78087C -0.193433 9.12588 0.435859 9.05596 0.780869 8.62469L -0.780869 7.37531ZM -0.780869 0.624695L 2.41913 4.62469L 3.98087 3.3753L 0.780869 -0.624695L -0.780869 0.624695ZM 2.41913 3.3753L -0.780869 7.37531L 0.780869 8.62469L 3.98087 4.62469L 2.41913 3.3753Z"/>
</defs>
</svg>
