<svg width="16" height="16" viewBox="0 0 16 16" version="1.1" xmlns="http://www.w3.org/2000/svg" xmlns:xlink="http://www.w3.org/1999/xlink">
<title>h2&#9;</title>
<desc>Created using Figma</desc>
<g id="Canvas" transform="translate(-240 55)">
<rect x="240" y="-55" width="16" height="16" fill="transparent"/>
<clipPath id="clip-0" clip-rule="evenodd">
<path d="M -251 -69L 1189 -69L 1189 5085L -251 5085L -251 -69Z" fill="#FFFFFF"/>
</clipPath>
<g id="Homepage" clip-path="url(#clip-0)">
<path d="M -251 -69L 1189 -69L 1189 5085L -251 5085L -251 -69Z" fill="#FFFFFF"/>
<g id="Header">
<g id="Group 2">
<g id="top_bg">
<use xlink:href="#path0_fill" transform="translate(-251 -69)" fill="transparent"/>
</g>
<g id="Contact Us">
<g id="ic_tb_contact_us">
<g id="contact_us">
<use xlink:href="#path1_fill" transform="translate(240 -55)" fill="#9DABB2"/>
</g>
</g>
</g>
</g>
</g>
</g>
</g>
<defs>
<path id="path0_fill" fill-rule="evenodd" d="M 0 0L 1440 0L 1440 44L 0 44L 0 0Z"/>
<path id="path1_fill" fill-rule="evenodd" d="M 14.4922 6.1252C 15.3692 6.4319 16 7.2677 16 8.248L 16 9.752C 16 10.7161 15.3899 11.5405 14.5354 11.8592C 14.2448 13.3866 13.5345 14.4112 11.3022 14.4945C 11.0816 15.359 10.2964 16 9.364 16C 8.261 16 7.364 15.103 7.364 14C 7.364 12.897 8.261 12 9.364 12C 10.2924 12 11.0749 12.6356 11.2993 13.4946C 12.7557 13.4392 13.246 12.9596 13.4895 11.9723C 12.9247 11.8514 12.5 11.3485 12.5 10.748L 12.5 7.252C 12.5 6.65321 12.9222 6.15143 13.4847 6.0287C 13.3206 3.51607 11.8161 1 8 1C 4.18393 1 2.67935 3.51607 2.51529 6.0287C 3.07776 6.15143 3.5 6.65321 3.5 7.252L 3.5 10.748C 3.5 11.4385 2.93851 12 2.248 12C 1.0085 12 0 10.9915 0 9.752L 0 8.248C 0 7.2677 0.630798 6.4319 1.5078 6.1252C 1.66475 2.39078 4.17787 0 8 0C 11.8221 0 14.3353 2.39078 14.4922 6.1252ZM 9.364 13C 8.812 13 8.364 13.4485 8.364 14C 8.364 14.5515 8.8125 15 9.364 15C 9.9155 15 10.364 14.5515 10.364 14C 10.364 13.4485 9.91499 13 9.364 13ZM 2.248 7C 1.56 7 1 7.56 1 8.248L 1 9.752C 1 10.44 1.56 11 2.248 11C 2.38451 11 2.5 10.885 2.5 10.748L 2.5 7.252C 2.5 7.1155 2.38451 7 2.248 7ZM 13.752 7C 13.615 7 13.5 7.1155 13.5 7.252L 13.5 10.748C 13.5 10.885 13.615 11 13.752 11C 14.44 11 15 10.44 15 9.752L 15 8.248C 15 7.56 14.44 7 13.752 7Z"/>
</defs>
</svg>
