<svg width="16" height="16" viewBox="0 0 16 16" version="1.1" xmlns="http://www.w3.org/2000/svg" xmlns:xlink="http://www.w3.org/1999/xlink">
<title>ic_tb_faq</title>
<desc>Created using Figma</desc>
<g id="Canvas" transform="translate(-76 55)">
<g id="ic_tb_faq">
<g id="faq">
<use xlink:href="#path0_fill" transform="translate(76 -55)" fill="#9DABB2"/>
</g>
</g>
</g>
<defs>
<path id="path0_fill" fill-rule="evenodd" d="M 0 8C 0 12.411 3.589 16 8 16C 12.411 16 16 12.411 16 8C 16 3.589 12.411 0 8 0C 3.589 0 0 3.589 0 8ZM 1 8C 1 4.14 4.14 1 8 1C 11.86 1 15 4.14 15 8C 15 11.86 11.86 15 8 15C 4.14 15 1 11.86 1 8ZM 8 11.5C 8.27615 11.5 8.5 11.2761 8.5 11C 8.5 10.7239 8.27615 10.5 8 10.5C 7.72385 10.5 7.5 10.7239 7.5 11C 7.5 11.2761 7.72385 11.5 8 11.5ZM 7.51464 9.44647C 7.51464 9.75257 7.74081 10 8.01949 10C 8.29816 10 8.52383 9.75257 8.52484 9.44537C 8.52484 9.36566 8.59804 9.12487 9.27403 8.59958C 9.78292 8.20436 10.1747 7.23957 9.92023 6.37053C 9.65771 5.47105 8.78181 5 8.0523 5L 8.05129 5C 7.12994 5 6.33733 5.58342 6.0319 6.48511C 5.93446 6.77184 6.06775 7.09067 6.32925 7.19695C 6.58976 7.30267 6.88106 7.15765 6.97849 6.87092C 7.16882 6.30854 7.65751 6.1076 8.05129 6.1076L 8.0518 6.1076C 8.41125 6.1076 8.84845 6.33234 8.9585 6.70929C 9.07008 7.09122 8.87066 7.55674 8.68993 7.69733C 8.10884 8.14901 7.51464 8.70918 7.51464 9.44647Z"/>
</defs>
</svg>
