<svg width="24" height="20" viewBox="0 0 24 20" version="1.1" xmlns="http://www.w3.org/2000/svg" xmlns:xlink="http://www.w3.org/1999/xlink">
<title>Shape</title>
<desc>Created using Figma</desc>
<g id="Canvas" transform="translate(-1049 -13)">
<g id="Shape">
<use xlink:href="#path0_fill" transform="translate(1049 13)" fill="#9DABB2"/>
</g>
</g>
<defs>
<path id="path0_fill" fill-rule="evenodd" d="M 10.1895 19.2312C 10.6732 19.7271 11.316 20 12.0022 20C 12.6855 19.9992 13.3275 19.7263 13.8097 19.2312L 22.2271 10.6028C 23.37 9.43108 24 7.87268 24 6.21511C 24 2.37641 20.886 0 18 0C 16.3313 0 14.8328 0.631968 13.6665 1.82748L 12 3.53579L 10.3335 1.82748C 9.16724 0.631968 7.6687 0 6 0C 3.11475 0 0 2.37564 0 6.21511C 0 7.87268 0.630005 9.43108 1.77295 10.6028L 10.1895 19.2312ZM 1.5 6.21511C 1.5 3.3259 3.83545 1.53763 6 1.53763C 6.88049 1.53763 8.16223 1.77674 9.27295 2.91535L 11.4697 5.16722C 11.7629 5.46782 12.2371 5.46782 12.5303 5.16722L 14.7271 2.91535C 15.837 1.77674 17.1195 1.53763 18 1.53763C 20.1646 1.53763 22.5 3.3259 22.5 6.21511C 22.5 7.46214 22.026 8.63381 21.1665 9.51565L 12.7493 18.1441C 12.3473 18.5554 11.6498 18.5539 11.2507 18.1441L 2.8335 9.51565C 1.97327 8.63381 1.5 7.46214 1.5 6.21511Z"/>
</defs>
</svg>
