<svg width="16" height="12" viewBox="0 0 16 12" version="1.1" xmlns="http://www.w3.org/2000/svg" xmlns:xlink="http://www.w3.org/1999/xlink">
<title>X2&#9;</title>
<desc>Created using Figma</desc>
<g id="Canvas" transform="translate(-1007 53)">
<rect x="1007" y="-53" width="16" height="12" fill="#FFFFFF"/>
<clipPath id="clip-0" clip-rule="evenodd">
<path d="M -251 -69L 1189 -69L 1189 5085L -251 5085L -251 -69Z" fill="#FFFFFF"/>
</clipPath>
<g id="Homepage" clip-path="url(#clip-0)">
<path d="M -251 -69L 1189 -69L 1189 5085L -251 5085L -251 -69Z" fill="#FFFFFF"/>
<g id="Header">
<g id="Group 2">
<g id="top_bg">
<use xlink:href="#path0_fill" transform="translate(-251 -69)" fill="#17191A"/>
</g>
<g id="&#240;&#159;&#135;&#186;&#240;&#159;&#135;&#166; Country">
<g id="ic_fl_ukraine">
<g id="ic_fl_ukraine">
<g id="blue">
<use xlink:href="#path1_fill" transform="translate(1007 -53)" fill="url(#paint1_linear)"/>
</g>
<g id="yellow">
<use xlink:href="#path1_fill" transform="translate(1007 -47)" fill="url(#paint2_linear)"/>
</g>
</g>
</g>
</g>
</g>
</g>
</g>
</g>
<defs>
<linearGradient id="paint1_linear" x1="0" y1="0" x2="1" y2="0" gradientUnits="userSpaceOnUse" gradientTransform="matrix(0 6 -16 0 8 0)">
<stop offset="0" stop-color="#006EE4"/>
<stop offset="1" stop-color="#003EDA"/>
</linearGradient>
<linearGradient id="paint2_linear" x1="0" y1="0" x2="1" y2="0" gradientUnits="userSpaceOnUse" gradientTransform="matrix(0 5.78667 -15.4311 0 8 0)">
<stop offset="0" stop-color="#FFCF0B"/>
<stop offset="1" stop-color="#E5B000"/>
</linearGradient>
<path id="path0_fill" fill-rule="evenodd" d="M 0 0L 1440 0L 1440 44L 0 44L 0 0Z"/>
<path id="path1_fill" fill-rule="evenodd" d="M 0 0L 16 0L 16 6L 0 6L 0 0Z"/>
</defs>
</svg>
