<svg width="140" height="32" viewBox="0 0 140 32" version="1.1" xmlns="http://www.w3.org/2000/svg" xmlns:xlink="http://www.w3.org/1999/xlink">
<title>logo</title>
<desc>Created using Figma</desc>
<g id="Canvas" transform="translate(-8349 -31)">
<g id="logo">
<use xlink:href="#path0_fill" transform="translate(8349 16)" fill="#FFFFFF"/>
</g>
</g>
<defs>
<path id="path0_fill" d="M 11.3192 47L 0.187172 15.54L 8.54717 15.54L 14.0912 33.448C 14.2672 34.0347 14.4578 34.7533 14.6632 35.604C 14.8685 36.4547 15.0298 37.144 15.1472 37.672L 15.2792 38.508L 15.3672 38.508C 15.7485 36.4547 16.1445 34.768 16.5552 33.448L 22.1872 15.54L 30.4152 15.54L 19.3272 47L 11.3192 47ZM 41.0106 47L 29.8786 15.54L 38.2386 15.54L 43.7826 33.448C 43.9586 34.0347 44.1492 34.7533 44.3546 35.604C 44.5599 36.4547 44.7212 37.144 44.8386 37.672L 44.9706 38.508L 45.0586 38.508C 45.4399 36.4547 45.8359 34.768 46.2466 33.448L 51.8786 15.54L 60.1066 15.54L 49.0186 47L 41.0106 47ZM 63.134 47L 63.134 15.54L 70.834 15.54L 70.834 40.4L 83.682 40.4L 83.682 47L 63.134 47ZM 87.4113 47L 87.4113 15.54L 107.123 15.54L 107.123 22.14L 95.1113 22.14L 95.1113 27.86L 104.703 27.86L 104.703 34.46L 95.1113 34.46L 95.1113 40.4L 107.739 40.4L 107.739 47L 87.4113 47ZM 112.677 47L 112.677 15.54L 120.465 15.54L 129.177 30.236C 129.529 30.852 129.925 31.6147 130.365 32.524C 130.805 33.404 131.157 34.1373 131.421 34.724L 131.817 35.604L 131.905 35.604C 131.67 33.3453 131.553 31.556 131.553 30.236L 131.553 15.54L 139.253 15.54L 139.253 47L 131.509 47L 122.753 32.348C 122.401 31.732 122.005 30.984 121.565 30.104C 121.125 29.1947 120.773 28.4467 120.509 27.86L 120.113 26.98L 120.025 26.98C 120.26 29.2387 120.377 31.028 120.377 32.348L 120.377 47L 112.677 47Z"/>
</defs>
</svg>
