<svg width="132" height="32" viewBox="0 0 132 32" version="1.1" xmlns="http://www.w3.org/2000/svg" xmlns:xlink="http://www.w3.org/1999/xlink">
<title>VVLEN</title>
<desc>Created using Figma</desc>
<g id="Canvas" transform="translate(-402 -6)">
<g id="VVLEN">
<use xlink:href="#path0_fill" transform="translate(398 -9)" fill="#FFFFFF"/>
</g>
</g>
<defs>
<path id="path0_fill" d="M 17.4453 41.5215L 26.3828 15.7188L 30.8945 15.7188L 19.293 47L 15.6406 47L 4.06055 15.7188L 8.55078 15.7188L 17.4453 41.5215ZM 45.4609 41.5215L 54.3984 15.7188L 58.9102 15.7188L 47.3086 47L 43.6562 47L 32.0762 15.7188L 36.5664 15.7188L 45.4609 41.5215ZM 67.2676 43.627L 82.0918 43.627L 82.0918 47L 63.1211 47L 63.1211 15.7188L 67.2676 15.7188L 67.2676 43.627ZM 104.479 32.541L 90.9219 32.541L 90.9219 43.627L 106.67 43.627L 106.67 47L 86.7969 47L 86.7969 15.7188L 106.455 15.7188L 106.455 19.1133L 90.9219 19.1133L 90.9219 29.168L 104.479 29.168L 104.479 32.541ZM 135.846 47L 131.699 47L 115.951 22.8945L 115.951 47L 111.805 47L 111.805 15.7188L 115.951 15.7188L 131.742 39.9316L 131.742 15.7188L 135.846 15.7188L 135.846 47Z"/>
</defs>
</svg>
