<svg width="7" height="12" viewBox="0 0 7 12" version="1.1" xmlns="http://www.w3.org/2000/svg" xmlns:xlink="http://www.w3.org/1999/xlink">
<title>pagination</title>
<desc>Created using Figma</desc>
<g id="Canvas" transform="translate(-2516 -3481)">
<g id="pagination">
<use xlink:href="#path0_fill" transform="translate(2516 3481)" fill="#9DABB2"/>
</g>
</g>
<defs>
<path id="path0_fill" d="M 6.91271 5.79413L 1.07041 0.0852713C 0.954059 -0.0284238 0.765408 -0.0284238 0.649095 0.0852713L 0.0872743 0.63426C 0.0313822 0.688837 0 0.7629 0 0.840107C 0 0.917314 0.0313822 0.991377 0.0872743 1.04595L 5.15713 5.99998L 0.0872743 10.954C 0.0313822 11.0086 0 11.0827 0 11.1599C 0 11.2371 0.0313822 11.3112 0.0872743 11.3657L 0.649095 11.9147C 0.707252 11.9715 0.783522 12 0.859753 12C 0.935984 12 1.01225 11.9716 1.07041 11.9147L 6.91271 6.20586C 7.0291 6.09217 7.0291 5.90782 6.91271 5.79413Z"/>
</defs>
</svg>
