<svg width="10" height="8" viewBox="0 0 10 8" version="1.1" xmlns="http://www.w3.org/2000/svg" xmlns:xlink="http://www.w3.org/1999/xlink">
<title>Path 3</title>
<desc>Created using Figma</desc>
<g id="Canvas" transform="translate(-1698 -1041)">
<g id="Path 3">
<use xlink:href="#path0_stroke" transform="translate(1699.5 1042)" fill="#262626"/>
</g>
</g>
<defs>
<path id="path0_stroke" d="M 0.521566 2.46105C 0.223911 2.173 -0.250899 2.18078 -0.538952 2.47843C -0.827005 2.77609 -0.819221 3.2509 -0.521566 3.53895L 0.521566 2.46105ZM 3.1 6L 2.57843 6.53895C 2.73621 6.69164 2.95298 6.76752 3.17154 6.74658C 3.3901 6.72564 3.58851 6.60997 3.71442 6.4301L 3.1 6ZM 7.91442 0.430097C 8.15196 0.0907598 8.06943 -0.376888 7.7301 -0.614424C 7.39076 -0.85196 6.92311 -0.769434 6.68558 -0.430097L 7.91442 0.430097ZM -0.521566 3.53895L 2.57843 6.53895L 3.62157 5.46105L 0.521566 2.46105L -0.521566 3.53895ZM 3.71442 6.4301L 7.91442 0.430097L 6.68558 -0.430097L 2.48558 5.5699L 3.71442 6.4301Z"/>
</defs>
</svg>
