<svg width="16" height="13" viewBox="0 0 16 13" version="1.1" xmlns="http://www.w3.org/2000/svg" xmlns:xlink="http://www.w3.org/1999/xlink">
<title>X2&#9;</title>
<desc>Created using Figma</desc>
<g id="Canvas" transform="translate(29 53)">
<rect x="-29" y="-53" width="16" height="13" fill="#FFFFFF"/>
<clipPath id="clip-0" clip-rule="evenodd">
<path d="M -251 -69L 1189 -69L 1189 5085L -251 5085L -251 -69Z" fill="#FFFFFF"/>
</clipPath>
<g id="Homepage" clip-path="url(#clip-0)">
<path d="M -251 -69L 1189 -69L 1189 5085L -251 5085L -251 -69Z" fill="#FFFFFF"/>
<g id="Header">
<g id="Group 2">
<g id="top_bg">
<use xlink:href="#path0_fill" transform="translate(-251 -69)" fill="#17191A"/>
</g>
<g id="Returns">
<g id="ic_tb_returns">
<g id="returns">
<use xlink:href="#path1_fill" transform="translate(-29 -53)" fill="#9DABB2"/>
</g>
</g>
</g>
</g>
</g>
</g>
</g>
<defs>
<path id="path0_fill" fill-rule="evenodd" d="M 0 0L 1440 0L 1440 44L 0 44L 0 0Z"/>
<path id="path1_fill" fill-rule="evenodd" d="M 0.853584 4.6465L 1.59563 5.38858C 2.12442 2.33215 4.79522 0 8.00025 0C 9.86466 0 11.6411 0.802002 12.875 2.2005C 13.0575 2.4075 13.038 2.7235 12.831 2.9065C 12.6245 3.089 12.3085 3.0695 12.1251 2.8625C 11.0811 1.6785 9.57718 1 8.00025 1C 5.25402 1 2.97117 3.02382 2.56481 5.65828L 3.77595 5.0525C 4.02344 4.929 4.32342 5.029 4.44692 5.276C 4.57041 5.523 4.47041 5.8235 4.22343 5.947L 2.24387 6.93682C 2.17184 6.97706 2.08885 7 2.00053 7C 1.94537 7 1.89229 6.99105 1.84266 6.97453C 1.77031 6.95055 1.70291 6.90987 1.64655 6.8535L 0.146617 5.3535C -0.0488725 5.158 -0.0488725 4.842 0.146617 4.6465C 0.342109 4.451 0.658094 4.451 0.853584 4.6465ZM 3.12548 10.8C 4.35992 12.198 6.13634 13 8.00025 13C 11.2051 13 13.8758 10.6681 14.4048 7.61185L 15.1464 8.3535C 15.2439 8.451 15.3719 8.5 15.4999 8.5C 15.6279 8.5 15.7559 8.451 15.8534 8.354C 16.0489 8.1585 16.0489 7.8425 15.8534 7.647L 14.3688 6.16236C 14.2775 6.06259 14.1461 6 14 6C 13.9126 6 13.8305 6.02238 13.759 6.06172L 11.7766 7.053C 11.5296 7.1765 11.4296 7.477 11.5531 7.724C 11.6771 7.971 11.9776 8.07 12.2241 7.9475L 13.4357 7.34145C 13.0295 9.97604 10.7466 12 8.00025 12C 6.42332 12 4.91989 11.3215 3.87494 10.138C 3.69245 9.9315 3.37647 9.911 3.16948 10.094C 2.96249 10.2765 2.94249 10.593 3.12548 10.8Z"/>
</defs>
</svg>
