<svg width="24" height="24" viewBox="0 0 24 24" version="1.1" xmlns="http://www.w3.org/2000/svg" xmlns:xlink="http://www.w3.org/1999/xlink">
<title>Combined Shape</title>
<desc>Created using Figma</desc>
<g id="Canvas" transform="translate(135 -11)">
<g id="Combined Shape">
<use xlink:href="#path0_fill" transform="translate(-135 11)" fill="#9DABB2"/>
</g>
</g>
<defs>
<path id="path0_fill" fill-rule="evenodd" d="M 8.99993 18C 4.03722 18 0 13.9627 0 9C 0 4.03725 4.03722 0 8.99993 0C 13.9626 0 17.9999 4.03725 17.9999 9C 17.9999 11.212 17.1978 13.2401 15.8692 14.8089L 23.7801 22.7197C 24.0733 23.013 24.0733 23.487 23.7801 23.7803C 23.6338 23.9265 23.4418 24 23.2498 24C 23.0578 24 22.8658 23.9265 22.7196 23.7803L 14.8087 15.8694C 13.24 17.1979 11.2119 18 8.99993 18ZM 8.99992 1.5C 4.86446 1.5 1.49998 4.8645 1.49998 9C 1.49998 13.1355 4.86446 16.5 8.99992 16.5C 13.1354 16.5 16.4999 13.1355 16.4999 9C 16.4999 4.8645 13.1354 1.5 8.99992 1.5Z"/>
</defs>
</svg>
