<svg width="20" height="24" viewBox="0 0 20 24" version="1.1" xmlns="http://www.w3.org/2000/svg" xmlns:xlink="http://www.w3.org/1999/xlink">
<title>ic_sb_shopping_cart</title>
<desc>Created using Figma</desc>
<g id="Canvas" transform="translate(-1099 -11)">
<g id="ic_sb_shopping_cart">
<use xlink:href="#path0_fill" transform="translate(1099 11)" fill="#9DABB2"/>
</g>
</g>
<defs>
<path id="path0_fill" fill-rule="evenodd" d="M 13.8461 12C 13.8461 12.414 14.1899 12.75 14.6154 12.75C 15.0408 12.75 15.3846 12.414 15.3846 12L 15.3846 8.125L 18.2155 8.125C 18.4331 8.125 18.61 8.29747 18.61 8.50963L 18.61 22.2426C 18.61 22.4746 18.4926 22.612 18.4526 22.625L 1.55591 22.6257C 1.51135 22.612 1.39392 22.4746 1.39392 22.2426L 1.39001 8.50963C 1.39001 8.37074 1.46277 8.27992 1.50586 8.23795C 1.54895 8.19597 1.64209 8.125 1.78455 8.125L 4.61536 8.125L 4.61536 12C 4.61536 12.414 4.95996 12.75 5.38464 12.75C 5.8092 12.75 6.15381 12.414 6.15381 12L 6.15381 8.125L 13.8461 8.125L 13.8461 12ZM 15.3846 6.75L 15.3846 5.25C 15.3846 2.355 12.9684 0 10 0C 7.03076 0 4.61536 2.355 4.61536 5.25L 4.61536 6.75L 1.92615 6.75C 1.4115 6.75 0.927734 6.94575 0.563843 7.3005C 0.199951 7.65525 0 8.127 0 8.62875L 0.00463867 22.1243C 0.00463867 23.1585 0.763794 24 1.69763 24L 18.3069 24C 19.2407 24 20 23.1585 20 22.1243L 20 8.628C 20 7.59225 19.1361 6.75 18.0739 6.75L 15.3846 6.75ZM 6.15381 6.75L 13.8461 6.75L 13.8461 5.25C 13.8461 3.18225 12.1207 1.5 10 1.5C 7.87915 1.5 6.15381 3.18225 6.15381 5.25L 6.15381 6.75Z"/>
</defs>
</svg>
