<svg width="24" height="24" viewBox="0 0 24 24" version="1.1" xmlns="http://www.w3.org/2000/svg" xmlns:xlink="http://www.w3.org/1999/xlink">
<title>Combined Shape</title>
<desc>Created using Figma</desc>
<g id="Canvas" transform="translate(183 -11)">
<g id="Combined Shape">
<use xlink:href="#path0_fill" transform="translate(-183 11)" fill="#9DABB2"/>
</g>
</g>
<defs>
<path id="path0_fill" fill-rule="evenodd" d="M 1.53226 22.5C 1.9575 17.6235 6.48976 13.7723 12 13.7723C 17.5103 13.7723 22.0433 17.6235 22.4678 22.5L 1.53226 22.5ZM 8.42499 12.7697C 6.44089 11.5597 5.11349 9.37485 5.11349 6.88575C 5.11349 3.0885 8.20274 0 12 0C 15.7965 0 18.8865 3.08925 18.8865 6.8865C 18.8865 9.37546 17.5589 11.5599 15.575 12.7697C 20.4512 14.1649 24 18.3359 24 23.25C 24 23.6647 23.6647 24 23.25 24L 0.75 24C 0.335999 24 0 23.6647 0 23.25C 0 18.3359 3.5488 14.1649 8.42499 12.7697ZM 6.61349 6.8865C 6.61349 3.9165 9.03 1.5 12 1.5C 14.97 1.5 17.3865 3.91575 17.3865 6.88575C 17.3865 9.85575 14.97 12.2723 12 12.2723C 9.03 12.2723 6.61349 9.8565 6.61349 6.8865Z"/>
</defs>
</svg>
