<svg width="16" height="12" viewBox="0 0 16 12" version="1.1" xmlns="http://www.w3.org/2000/svg" xmlns:xlink="http://www.w3.org/1999/xlink">
<title>truck</title>
<desc>Created using Figma</desc>
<g id="Canvas" transform="translate(187 53)">
<g id="truck">
<use xlink:href="#path0_fill" transform="translate(-187 -53)" fill="#9DABB2"/>
</g>
</g>
<defs>
<path id="path0_fill" fill-rule="evenodd" d="M 9.5 10.5L 6 10.5C 5.97891 10.5 5.95815 10.4987 5.93774 10.4962C 5.71657 11.3599 4.93179 12 4 12C 3.0696 12 2.28577 11.3618 2.06325 10.5L 1.2495 10.5C 0.560501 10.5 0 9.9395 0 9.2505L 0 1.2475C 0 0.559502 0.559494 0 1.2475 0L 8.7525 0C 9.44051 0 10 0.559502 10 1.2475L 10 2L 11.9915 2C 12.436 2 12.8685 2.1565 13.2105 2.441L 15.315 4.195C 15.75 4.5575 16 5.091 16 5.6575L 16 9.254C 16 9.9415 15.4415 10.5 14.7545 10.5L 14.4368 10.5C 14.2142 11.3618 13.4304 12 12.5 12C 11.5696 12 10.7858 11.3618 10.5632 10.5L 9.5 10.5ZM 10.5632 9.5L 10 9.5L 10 3L 11.9915 3C 12.2025 3 12.408 3.0745 12.5705 3.2095L 14.675 4.9635C 14.8815 5.1355 15 5.389 15 5.658L 15 9.2545C 15 9.3895 14.8895 9.5 14.7545 9.5L 14.4368 9.5C 14.2142 8.63824 13.4304 8 12.5 8C 11.5696 8 10.7858 8.63824 10.5632 9.5ZM 9 9.5L 9 2.5L 9 1.2475C 9 1.111 8.88901 1 8.7525 1L 1.2475 1C 1.11099 1 1 1.111 1 1.2475L 1 9.2505C 1 9.388 1.112 9.5 1.2495 9.5L 2.06325 9.5C 2.28577 8.63824 3.0696 8 4 8C 4.93179 8 5.71657 8.64014 5.93774 9.50384C 5.95815 9.50131 5.97891 9.5 6 9.5L 9 9.5ZM 11.5 10C 11.5 10.5515 11.9485 11 12.5 11C 13.0515 11 13.5 10.5515 13.5 10C 13.5 9.4485 13.0515 9 12.5 9C 11.9485 9 11.5 9.4485 11.5 10ZM 4 9C 3.4485 9 3 9.4485 3 10C 3 10.5515 3.4485 11 4 11C 4.5515 11 5 10.5515 5 10C 5 9.4485 4.5515 9 4 9Z"/>
</defs>
</svg>
