<svg width="109" height="25" viewBox="0 0 109 25" version="1.1" xmlns="http://www.w3.org/2000/svg" xmlns:xlink="http://www.w3.org/1999/xlink">
<title>VVLEN</title>
<desc>Created using Figma</desc>
<g id="Canvas" transform="translate(188 -4852)">
<rect x="-188" y="4852" width="109" height="25" fill="#FFFFFF"/>
<clipPath id="clip-0" clip-rule="evenodd">
<path d="M -251 -69L 1189 -69L 1189 5085L -251 5085L -251 -69Z" fill="#FFFFFF"/>
</clipPath>
<g id="Homepage" clip-path="url(#clip-0)">
<path d="M -251 -69L 1189 -69L 1189 5085L -251 5085L -251 -69Z" fill="#FFFFFF"/>
<g id="Footer">
<g id="subtop_bg">
<use xlink:href="#path0_fill" transform="translate(-251 4811)" fill="#222526"/>
</g>
<g id="VVLEN">
<use xlink:href="#path1_fill" transform="translate(-187 4843)" fill="#393E40"/>
</g>
</g>
</g>
</g>
<defs>
<path id="path0_fill" fill-rule="evenodd" d="M 0 0L 1440 0L 1440 274L 0 274L 0 0Z"/>
<path id="path1_fill" d="M 8.398 34L -0.204 9.69L 6.256 9.69L 10.54 23.528C 10.676 23.9813 10.8233 24.5367 10.982 25.194C 11.1407 25.8513 11.2653 26.384 11.356 26.792L 11.458 27.438L 11.526 27.438C 11.8207 25.8513 12.1267 24.548 12.444 23.528L 16.796 9.69L 23.154 9.69L 14.586 34L 8.398 34ZM 31.3414 34L 22.7394 9.69L 29.1994 9.69L 33.4834 23.528C 33.6194 23.9813 33.7667 24.5367 33.9254 25.194C 34.084 25.8513 34.2087 26.384 34.2994 26.792L 34.4014 27.438L 34.4694 27.438C 34.764 25.8513 35.07 24.548 35.3874 23.528L 39.7394 9.69L 46.0974 9.69L 37.5294 34L 31.3414 34ZM 48.4367 34L 48.4367 9.69L 54.3867 9.69L 54.3867 28.9L 64.3147 28.9L 64.3147 34L 48.4367 34ZM 67.1965 34L 67.1965 9.69L 82.4285 9.69L 82.4285 14.79L 73.1465 14.79L 73.1465 19.21L 80.5585 19.21L 80.5585 24.31L 73.1465 24.31L 73.1465 28.9L 82.9045 28.9L 82.9045 34L 67.1965 34ZM 86.7199 34L 86.7199 9.69L 92.7379 9.69L 99.4699 21.046C 99.7419 21.522 100.048 22.1113 100.388 22.814C 100.728 23.494 101 24.0607 101.204 24.514L 101.51 25.194L 101.578 25.194C 101.397 23.4487 101.306 22.066 101.306 21.046L 101.306 9.69L 107.256 9.69L 107.256 34L 101.272 34L 94.5059 22.678C 94.2339 22.202 93.9279 21.624 93.5879 20.944C 93.2479 20.2413 92.9759 19.6633 92.7719 19.21L 92.4659 18.53L 92.3979 18.53C 92.5793 20.2753 92.6699 21.658 92.6699 22.678L 92.6699 34L 86.7199 34Z"/>
</defs>
</svg>
