<svg width="103" height="25" viewBox="0 0 103 25" version="1.1" xmlns="http://www.w3.org/2000/svg" xmlns:xlink="http://www.w3.org/1999/xlink">
<title>VVLEN</title>
<desc>Created using Figma</desc>
<g id="Canvas" transform="translate(187 -4852)">
<g id="VVLEN">
<use xlink:href="#path0_fill" transform="translate(-187 4843)" fill="#393E40"/>
</g>
</g>
<defs>
<path id="path0_fill" d="M 10.8076 29.7666L 17.7139 9.82812L 21.2002 9.82812L 12.2354 34L 9.41309 34L 0.464844 9.82812L 3.93457 9.82812L 10.8076 29.7666ZM 32.4561 29.7666L 39.3623 9.82812L 42.8486 9.82812L 33.8838 34L 31.0615 34L 22.1133 9.82812L 25.583 9.82812L 32.4561 29.7666ZM 49.3066 31.3936L 60.7617 31.3936L 60.7617 34L 46.1025 34L 46.1025 9.82812L 49.3066 9.82812L 49.3066 31.3936ZM 78.0605 22.8271L 67.585 22.8271L 67.585 31.3936L 79.7539 31.3936L 79.7539 34L 64.3975 34L 64.3975 9.82812L 79.5879 9.82812L 79.5879 12.4512L 67.585 12.4512L 67.585 20.2207L 78.0605 20.2207L 78.0605 22.8271ZM 102.299 34L 99.0947 34L 86.9258 15.373L 86.9258 34L 83.7217 34L 83.7217 9.82812L 86.9258 9.82812L 99.1279 28.5381L 99.1279 9.82812L 102.299 9.82812L 102.299 34Z"/>
</defs>
</svg>
